<svg width="16" height="16" viewBox="0 0 16 16" fill="none" xmlns="http://www.w3.org/2000/svg">
<circle cx="7.995" cy="7.99988" r="7.995" fill="#F8E71C"/>
<path d="M15.5301 5.2991C14.996 3.81034 14.0323 2.51341 12.7611 1.57234C11.4898 0.631268 9.96805 0.0883325 8.38821 0.012201C6.80837 -0.0639306 5.24144 0.330156 3.88559 1.14463C2.52974 1.9591 1.44588 3.15737 0.771089 4.58788C0.0963016 6.01839 -0.139103 7.61688 0.094651 9.18119C0.328405 10.7455 1.02082 12.2053 2.08431 13.3761C3.1478 14.5469 4.53461 15.3759 6.06932 15.7585C7.60404 16.141 9.21774 16.0598 10.7063 15.5252C12.7018 14.8085 14.331 13.3286 15.2355 11.4109C16.1401 9.49327 16.2461 7.29485 15.5301 5.2991ZM10.4711 14.8619C9.11385 15.3489 7.64266 15.4224 6.24361 15.0732C4.84455 14.724 3.58045 13.9678 2.61116 12.9002C1.64186 11.8326 1.01091 10.5016 0.798083 9.07541C0.585253 7.64923 0.800099 6.19197 1.41547 4.88789C2.03083 3.58382 3.01908 2.4915 4.25523 1.74906C5.49139 1.00663 6.91993 0.64742 8.36024 0.71686C9.80054 0.786301 11.1879 1.28127 12.3469 2.13918C13.5059 2.9971 14.3845 4.17942 14.8715 5.53665C15.2014 6.43742 15.3491 7.39474 15.306 8.35305C15.263 9.31137 15.03 10.2516 14.6206 11.1191C14.2112 11.9867 13.6336 12.7643 12.9213 13.4068C12.209 14.0493 11.3761 14.5439 10.4711 14.8619Z" fill="#CBBD12"/>
<path d="M12.2439 11.6723C11.6113 12.4019 10.8012 12.956 9.89195 13.281C9.60504 13.3813 9.311 13.4599 9.01233 13.5162C8.98145 13.519 8.95141 13.5278 8.92394 13.5422C8.89647 13.5566 8.87211 13.5763 8.85223 13.6001C8.81209 13.6482 8.7927 13.7102 8.79831 13.7726C8.80393 13.835 8.83409 13.8926 8.88216 13.9327C8.93024 13.9728 8.99229 13.9922 9.05467 13.9866C9.06869 13.9889 9.08299 13.9889 9.097 13.9866C9.42165 13.9269 9.74097 13.8412 10.0519 13.7303C11.0362 13.3784 11.9128 12.7781 12.5966 11.9875C12.618 11.9643 12.6345 11.9371 12.6451 11.9075C12.6558 11.8779 12.6604 11.8464 12.6586 11.8149C12.6569 11.7835 12.6489 11.7527 12.635 11.7244C12.6211 11.6962 12.6017 11.671 12.5779 11.6503C12.5541 11.6297 12.5265 11.614 12.4965 11.6043C12.4666 11.5946 12.4349 11.5909 12.4036 11.5936C12.3722 11.5964 12.3417 11.6053 12.3138 11.6201C12.286 11.6348 12.2614 11.655 12.2415 11.6794L12.2439 11.6723Z" fill="#CBBD12"/>
<path d="M13.4785 10.0519C13.45 10.04 13.4193 10.0338 13.3884 10.0337C13.3574 10.0336 13.3267 10.0396 13.2981 10.0514C13.2695 10.0632 13.2435 10.0806 13.2216 10.1025C13.1996 10.1243 13.1823 10.1503 13.1704 10.1789C13.1011 10.3492 13.0226 10.5157 12.9352 10.6775C12.9203 10.7047 12.911 10.7345 12.9076 10.7653C12.9043 10.7961 12.9071 10.8273 12.9158 10.857C12.9245 10.8867 12.9391 10.9144 12.9586 10.9385C12.978 10.9626 13.0021 10.9826 13.0293 10.9974C13.064 11.0161 13.1028 11.0258 13.1422 11.0256C13.1845 11.0257 13.2261 11.0144 13.2625 10.9929C13.2989 10.9714 13.3289 10.9404 13.3492 10.9033C13.4432 10.7269 13.5326 10.5435 13.6102 10.36C13.6221 10.3312 13.628 10.3003 13.6278 10.2691C13.6275 10.2379 13.6211 10.2071 13.6089 10.1784C13.5966 10.1497 13.5788 10.1238 13.5564 10.1021C13.534 10.0804 13.5076 10.0633 13.4785 10.0519Z" fill="#CBBD12"/>
<path d="M8.19741 8.35977H7.82121C7.5195 8.35977 7.41148 8.19216 7.37423 7.86437C7.20662 6.30741 6.6479 6.13606 6.14132 6.13606C5.57515 6.13606 5.29579 6.51227 5.18777 7.01884C5.05368 7.63344 5.02016 8.81792 5.02016 10.0248C5.02016 10.4345 4.76687 10.6543 4.33107 10.6543C4.00329 10.6543 3.75 10.4382 3.75 10.0248C3.75 8.52739 3.78725 7.27213 4.00329 6.54579C4.305 5.51775 5.05368 5 6.11525 5C7.0688 5 7.74671 5.38738 7.98883 6.24408C8.27936 5.38738 8.88278 5 9.93317 5C11.0432 5 11.6727 5.51775 11.9855 6.54579C12.2277 7.33173 12.25 8.63541 12.25 10.0136C12.25 10.4121 12.0191 10.6282 11.6838 10.6431C11.2257 10.6543 10.9836 10.427 10.9836 10.0136C10.9836 8.74715 10.9128 7.64461 10.816 7.01884C10.7303 6.4862 10.4882 6.13606 9.91082 6.13606C9.39308 6.13606 8.81201 6.27016 8.62949 7.87555C8.59597 8.18843 8.49912 8.35977 8.19741 8.35977Z" fill="#CBBD12"/>
<path d="M9.50843 8.55322C8.94971 8.55322 8.94971 8.89591 8.94971 9.59617C8.94971 10.3113 8.94971 10.654 9.50843 10.654C10.056 10.654 10.056 10.2964 10.056 9.59617C10.056 8.86238 10.056 8.55322 9.50843 8.55322Z" fill="#CBBD12"/>
<path d="M6.52894 8.55322C5.97021 8.55322 5.97021 8.89591 5.97021 9.59617C5.97021 10.3113 5.97021 10.654 6.52894 10.654C7.07648 10.654 7.07648 10.2964 7.07648 9.59617C7.07648 8.86238 7.07648 8.55322 6.52894 8.55322Z" fill="#CBBD12"/>
</svg>
