<svg width="25" height="29" viewBox="0 0 25 29" fill="none" xmlns="http://www.w3.org/2000/svg">
<path fill-rule="evenodd" clip-rule="evenodd" d="M12.5 0C6.5 0 0.5 0.757895 0.5 6.06316V20.4632C0.5 23.3886 2.855 25.7684 5.75 25.7684L3.5 28.0421V28.8H6.5L9.5 25.7684H15.5L18.5 28.8H21.5V28.0421L19.25 25.7684C22.145 25.7684 24.5 23.3886 24.5 20.4632V6.06316C24.5 0.757895 18.5 0 12.5 0ZM18.9995 23.24H4.88C3.6516 23.24 2.66 22.2484 2.66 21.02V15.84H22.1074V18.43V21.02C22.1074 22.2484 20.2279 23.24 18.9995 23.24ZM6.57945 17.48C5.25945 17.48 4.17945 18.56 4.17945 19.88C4.17945 21.2 5.25945 22.28 6.57945 22.28C7.89945 22.28 8.97945 21.2 8.97945 19.88C8.97945 18.56 7.89945 17.48 6.57945 17.48ZM15.6995 19.88C15.6995 18.56 16.7795 17.48 18.0995 17.48C19.4195 17.48 20.4995 18.56 20.4995 19.88C20.4995 21.2 19.4195 22.28 18.0995 22.28C16.7795 22.28 15.6995 21.2 15.6995 19.88ZM22.268 5.52C22.268 4.336 21.38 1.92 12.5 1.92C3.62 1.92 2.73195 4.336 2.73195 5.52H22.268ZM11.54 7.2V10.88V13.92H7.1H2.66V11.04V7.2H7.1H11.54ZM22.34 10.88V7.2H17.9H13.46V11.04V13.92H17.9H22.34V10.88Z" fill="#22C2D3"/>
</svg>
