<svg width="25" height="31" viewBox="0 0 25 31" fill="none" xmlns="http://www.w3.org/2000/svg">
<path fill-rule="evenodd" clip-rule="evenodd" d="M12.1666 0.0833435C5.53663 0.0833435 0.166626 0.833344 0.166626 6.08334V21.8333C0.166626 24.7283 2.52163 27.0833 5.41663 27.0833L3.16663 29.3333V30.0833H21.1666V29.3333L18.9166 27.0833C21.8116 27.0833 24.1666 24.7283 24.1666 21.8333V6.08334C24.1666 0.833344 18.7966 0.0833435 12.1666 0.0833435ZM12.1667 2.43469C20.4369 2.43469 21.4099 3.40766 22.0666 6.08333H2.26662C2.43694 3.89415 4.38288 2.43469 12.1667 2.43469ZM22.0666 11.5766V8.12658H12.1666H2.26662V11.7266V14.4266H12.1666H22.0666V11.5766ZM18.9167 24.0834H4.60641C3.36141 24.0834 2.35641 23.0784 2.35641 21.8334V16.5834H22.0667V19.2084V21.8334C22.0667 23.0784 20.1617 24.0834 18.9167 24.0834ZM9.16663 20.3333C9.16663 18.6833 10.5166 17.3333 12.1666 17.3333C13.8166 17.3333 15.1666 18.6833 15.1666 20.3333C15.1666 21.9833 13.8166 23.3333 12.1666 23.3333C10.5166 23.3333 9.16663 21.9833 9.16663 20.3333Z" fill="#22C2D3"/>
</svg>
