<svg width="23" height="33" viewBox="0 0 23 33" fill="none" xmlns="http://www.w3.org/2000/svg">
<path fill-rule="evenodd" clip-rule="evenodd" d="M12.4252 4.27142L13.0412 3.03928L13.6573 1.80714H19.7143V0H3.28571V1.80714H11.5L10.8839 3.03928L10.2678 4.27142C5.12567 4.41928 0 5.47071 0 10.0214V23.9857C0 26.45 1.82357 28.4707 4.18929 28.8321L1.64286 31.3786V32.2H4.92857L8.21429 28.9143H14.7857L18.0714 32.2H21.3571V31.3786L18.8107 28.8321C21.1764 28.4707 23 26.45 23 23.9857V10.0214C23 5.47071 17.5673 4.41928 12.4252 4.27142ZM9.90639 6.40714H11.5H13.0935C18.515 6.40714 19.8785 7.88571 20.8642 9.36428H11.5H2.13567C3.12139 6.40714 7.6721 6.40714 9.90639 6.40714ZM20.8644 23.9856C20.8644 24.7249 19.6157 26.4336 18.8928 26.6143H16.9094L16.9214 26.6143H4.50141C3.77855 26.4336 2.13567 24.725 2.13567 23.9857V21.1929H6.48105H10.5161L10.5143 21.1929L10.557 21.1927L10.5523 21.1929H10.6621C10.6383 21.1929 10.6151 21.1931 10.5925 21.1935L17.1597 21.2499L20.8644 21.1929V23.9856ZM10.6047 21.1916C10.6039 21.1913 10.5873 21.1915 10.557 21.1927C10.5903 21.1924 10.6055 21.1918 10.6047 21.1916ZM2.13567 19.0571V15.7714V11.3357H11.5H20.8642V15.7714V19.0571H2.13567ZM9.03567 23.9036C9.03567 22.5426 10.139 21.4393 11.5 21.4393C12.8609 21.4393 13.9642 22.5426 13.9642 23.9036C13.9642 25.2646 12.8609 26.3679 11.5 26.3679C10.139 26.3679 9.03567 25.2646 9.03567 23.9036Z" fill="#22C2D3"/>
</svg>
