<svg width="29" height="24" viewBox="0 0 29 24" fill="none" xmlns="http://www.w3.org/2000/svg">
<path fill-rule="evenodd" clip-rule="evenodd" d="M20.4878 2.34146C20.4878 3.62927 19.4341 4.68293 18.1463 4.68293C16.8585 4.68293 15.8049 3.62927 15.8049 2.34146C15.8049 1.05366 16.8585 0 18.1463 0C19.4341 0 20.4878 1.05366 20.4878 2.34146ZM0 18.1463C0 14.8683 2.57561 12.2927 5.85366 12.2927C9.13171 12.2927 11.7073 14.8683 11.7073 18.1463C11.7073 21.4244 9.13171 24 5.85366 24C2.57561 24 0 21.4244 0 18.1463ZM5.85366 22.2439C3.62927 22.2439 1.7561 20.3707 1.7561 18.1463C1.7561 15.922 3.62927 14.0488 5.85366 14.0488C8.07805 14.0488 9.95122 15.922 9.95122 18.1463C9.95122 20.3707 8.07805 22.2439 5.85366 22.2439ZM16.3902 8.66341L15.4537 7.72683L12.6439 10.5366L15.2195 13.2293V20.4878H12.8781V14.6341L9.13171 11.3561C8.66342 11.0049 8.42927 10.4195 8.42927 9.71707C8.42927 9.13171 8.66342 8.54634 9.13171 8.07805L12.4098 4.8C12.761 4.33171 13.3463 4.09756 14.0488 4.09756C14.7512 4.09756 15.3366 4.33171 15.922 4.8L18.1463 7.02439C19.2 8.07805 20.6049 8.78049 22.361 8.78049V11.122C19.9024 11.122 17.9122 10.1854 16.3902 8.66341ZM22.2439 12.2927C18.9659 12.2927 16.3902 14.8683 16.3902 18.1463C16.3902 21.4244 18.9659 24 22.2439 24C25.522 24 28.0976 21.4244 28.0976 18.1463C28.0976 14.8683 25.522 12.2927 22.2439 12.2927ZM18.1463 18.1463C18.1463 20.3707 20.0195 22.2439 22.2439 22.2439C24.4683 22.2439 26.3415 20.3707 26.3415 18.1463C26.3415 15.922 24.4683 14.0488 22.2439 14.0488C20.0195 14.0488 18.1463 15.922 18.1463 18.1463Z" fill="#22C2D3"/>
</svg>
