<svg width="25" height="28" viewBox="0 0 25 28" fill="none" xmlns="http://www.w3.org/2000/svg">
<path fill-rule="evenodd" clip-rule="evenodd" d="M15.926 0.5H8.57684V4.17457H4.90228C3.55494 4.17457 2.45257 5.27694 2.45257 6.62428V12.2831L0.872501 12.7976C0.554039 12.8955 0.284571 13.116 0.137588 13.41C-0.00939465 13.7039 -0.0461403 14.0469 0.0640967 14.3654L2.39132 22.5474H2.45257C4.41233 22.5474 6.15163 21.4695 7.35199 20.0977C8.55235 21.4695 10.2916 22.5474 12.2514 22.5474C14.2112 22.5474 15.9505 21.4695 17.1508 20.0977C18.3512 21.4695 20.0905 22.5474 22.0503 22.5474H22.1115L24.4265 14.3654C24.5245 14.0469 24.5 13.7039 24.353 13.41C24.206 13.116 23.9365 12.8955 23.6181 12.7976L22.0503 12.2831V6.62428C22.0503 5.27694 20.9479 4.17457 19.6005 4.17457H15.926V0.5ZM12.2514 10.8858L18.1891 13.0731L22.542 14.445L21.8269 17.2744L21.1089 20.4468C20.4475 20.0793 19.2425 19.1729 18.9975 18.8912L17.148 17.1764L15.2984 19.2831C14.882 19.7731 13.7449 20.7683 12.2628 20.7683C10.7807 20.7683 9.62934 19.6414 9.21289 19.1515L7.36336 17.0447L5.51383 19.1515C5.26886 19.4332 4.3106 20.0027 3.64917 20.3702L2.8294 17.2744L1.95685 14.1204L5.36482 13.0731L12.2514 10.8858ZM14.1471 4.17457V2.54907H12.2515L10.5093 2.54907V3.36182V4.17457L14.1471 4.17457ZM4.44628 11.487V8.72186V5.95674H19.9801V8.72186V11.487L12.2514 9.07401L4.44628 11.487ZM12.2514 24.9481C13.954 24.9481 15.6565 24.4214 17.1509 23.3803C18.6452 24.4214 20.3477 24.9971 22.0503 24.9971H24.5V27.4468H22.0503C20.36 27.4468 18.6942 27.0304 17.1509 26.2342C15.6075 27.0304 13.9295 27.4223 12.2514 27.4223C10.5734 27.4223 8.89533 27.0181 7.35201 26.2342C5.80869 27.0181 4.14289 27.4468 2.45259 27.4468H0.00287569V24.9971H2.45259C4.15514 24.9971 5.85769 24.4214 7.35201 23.3803C8.84633 24.4214 10.5489 24.9481 12.2514 24.9481Z" fill="#22C2D3"/>
</svg>
