<svg width="25" height="30" viewBox="0 0 25 30" fill="none" xmlns="http://www.w3.org/2000/svg">
<path fill-rule="evenodd" clip-rule="evenodd" d="M0.25 6.67001C0.25 1.42001 5.62 0.670013 12.25 0.670013C18.88 0.670013 24.25 1.42001 24.25 6.67001V21.67C24.25 22.99 23.665 24.175 22.75 25V27.67C22.75 28.495 22.075 29.17 21.25 29.17H19.75C18.925 29.17 18.25 28.495 18.25 27.67V26.17H6.25V27.67C6.25 28.495 5.575 29.17 4.75 29.17H3.25C2.425 29.17 1.75 28.495 1.75 27.67V25C0.835 24.175 0.25 22.99 0.25 21.67V6.67001ZM12.25 5.92H22.1973C20.3026 2.77 17.785 2.77 12.25 2.77C6.71496 2.77 3.72364 2.77 2.30259 5.92H12.25ZM22.1973 7.72002V9.97002V13.57H12.25H2.30259V9.97002V7.72002H22.1973ZM21.2523 23.92L21.6873 23.515C21.8823 23.35 22.1973 22.225 22.1973 21.67V18.67V15.67H2.26385V21.67C2.26385 22.225 2.57885 23.35 2.77385 23.515L3.20885 23.92H21.2523ZM6.99999 17.17C5.75735 17.17 4.74999 18.1774 4.74999 19.42C4.74999 20.6626 5.75735 21.67 6.99999 21.67C8.24263 21.67 9.24999 20.6626 9.24999 19.42C9.24999 18.1774 8.24263 17.17 6.99999 17.17ZM15.25 19.42C15.25 18.1774 16.2574 17.17 17.5 17.17C18.7427 17.17 19.75 18.1774 19.75 19.42C19.75 20.6626 18.7427 21.67 17.5 21.67C16.2574 21.67 15.25 20.6626 15.25 19.42Z" fill="#22C2D3"/>
</svg>
