<svg width="25" height="31" viewBox="0 0 25 31" fill="none" xmlns="http://www.w3.org/2000/svg">
<path fill-rule="evenodd" clip-rule="evenodd" d="M12.5 0.0833302C5.68582 0.0833302 0.166656 0.854164 0.166656 6.25V22.4375C0.166656 25.4129 2.58707 27.8333 5.56249 27.8333L3.24999 30.1458V30.9167H21.75V30.1458L19.4375 27.8333C22.4129 27.8333 24.8333 25.4129 24.8333 22.4375V6.25C24.8333 0.854164 19.3142 0.0833302 12.5 0.0833302ZM12.5 2.5C21.75 2.5 22.675 5.01667 22.675 6.25H2.32499C2.32499 5.01667 3.25004 2.5 12.5 2.5ZM11.5 11.8333V7.99999H6.87503H2.25003V12V15H6.87503H11.5V11.8333ZM22.75 7.99999V11.8333V15H18.125H13.5V12V7.99999H18.125H22.75ZM4.72972 24.75H19.4375C20.7171 24.75 22.675 23.7171 22.675 22.4375V19.7396V17.0417H2.41722V22.4375C2.41722 23.7171 3.45014 24.75 4.72972 24.75ZM6.50003 18.25C5.12503 18.25 4.00003 19.375 4.00003 20.75C4.00003 22.125 5.12503 23.25 6.50003 23.25C7.87503 23.25 9.00003 22.125 9.00003 20.75C9.00003 19.375 7.87503 18.25 6.50003 18.25ZM16 20.75C16 19.375 17.125 18.25 18.5 18.25C19.875 18.25 21 19.375 21 20.75C21 22.125 19.875 23.25 18.5 23.25C17.125 23.25 16 22.125 16 20.75Z" fill="#22C2D3"/>
</svg>
